<svg xmlns="http://www.w3.org/2000/svg" width="32" height="32" version="1"><path d="M16 0C7.164 0 0 7.164 0 16s7.164 16 16 16 16-7.164 16-16S24.836 0 16 0zm5.018 7.334c.407 0 .894.001 1.464.164 1.955.652 2.933 2.77 2.282 4.725-.652 1.955-2.77 2.933-4.725 2.28-.244 0-.408-.162-.652-.243-.082-.082-.162-.328-.08-.49 0-.082.243-.162.406-.08.163.08.407.162.57.244 1.63.57 3.34-.246 3.91-1.875.57-1.63-.243-3.34-1.873-3.91-1.629-.57-3.34.245-3.91 1.874-.163.245-.734.082-.652-.244a3.703 3.703 0 0 1 3.26-2.445zm-13.524 3.34h13.768c.326 0 .569.245.406.408l-3.502 3.422-3.422 3.42-.082.082v5.947h1.549c.163 0 .326.163.326.326s-.163.325-.326.325H14.5c-.163.081-.327.081-.408 0h-1.63c-.243.081-.405-.082-.405-.245 0-.244.163-.406.326-.406h1.629v-6.03h-.082l-3.422-3.42-3.42-3.421c-.163-.163.08-.408.406-.408zm3.014 1.222c-.245.082-.325.407-.162.489l3.095 3.178c.245.244.733-.244.489-.489l-3.096-3.095c-.081-.082-.163-.083-.326-.083z"/></svg>