<svg xmlns="http://www.w3.org/2000/svg" viewBox="0 0 16.77 16.77"><g data-name="Ebene 2"><g data-name="Ebene 1"><circle cx="8.38" cy="8.38" r="7.88" fill="#fff" stroke="#020101" stroke-miterlimit="10"/><path fill-rule="evenodd" d="M7.53 3.84h-.29L7.14 6h-.26l-.11-2.16h-.31L6.36 6H6.1L6 3.84h-.32L5.58 6h-.26l-.11-2.16h-.28l-.18 2.87a1 1 0 0 0 .25.62.94.94 0 0 0 .66.3v4.92a.39.39 0 0 0 .38.38h.36a.39.39 0 0 0 .38-.38V7.63a1 1 0 0 0 .66-.3.91.91 0 0 0 .25-.62zm3.36 0a.41.41 0 0 0-.33.18 1.88 1.88 0 0 0-.16.23c-.92 1.53-1.16 5.42-1.16 5.42h.93v2.91a.37.37 0 0 0 .37.35h.37a.37.37 0 0 0 .38-.35V4.24a.4.4 0 0 0-.4-.4z"/></g></g></svg>