<svg xmlns="http://www.w3.org/2000/svg" width="94.273" height="99.949" fill-rule="evenodd" clip-rule="evenodd" image-rendering="optimizeQuality" shape-rendering="geometricPrecision" text-rendering="geometricPrecision" viewBox="0 0 2483.41 2632.93"><path fill="#ead1ef" d="M240.59 1271.14c121.68,72.53 252.7,131.04 287.8,248.02 58.5,201.23 -215.27,388.42 -140.38,542.85 32.76,70.19 133.37,152.08 329.91,-32.77 124.02,-114.65 299.51,-233.98 467.97,-217.61 343.96,35.1 563.91,154.43 779.17,191.87 563.9,93.6 760.44,-832.98 114.65,-814.26 -285.46,7.01 -587.29,-170.81 -255.04,-582.62 292.49,-365.02 -60.83,-545.18 -360.33,-315.87 -250.37,191.86 -531.15,114.65 -786.19,98.27 -276.1,-21.06 -531.14,98.27 -629.42,285.46 -102.95,189.53 -44.46,451.59 191.87,596.66z"/><path fill="#ead1ef" d="M2294.97 765.74c77.22-9.36 147.41 46.79 156.77 124.01 9.36 77.22-46.79 147.41-124.01 156.77-77.22 7.02-147.41-46.79-156.77-124.02-9.36-77.21 46.79-147.4 124.01-156.76zM1029.13 2022.23c42.12-4.68 81.89 25.74 86.57 67.86 4.68 42.12-25.74 81.89-67.85 86.57-42.12 4.68-81.9-25.74-86.58-67.85-4.68-42.12 25.74-81.9 67.86-86.58z"/><path fill="#333" fill-rule="nonzero" d="M1593.02 644.07c28.08,7.02 44.46,35.1 37.44,63.17 -4.68,28.09 -35.1,46.8 -63.17,39.79 -16.38,-4.68 -32.76,-9.36 -49.13,-14.04 -16.38,-7.03 -30.42,-14.05 -44.46,-23.41l-2.34 0c-91.26,-49.13 -152.09,-133.37 -180.17,-224.62 -25.74,-93.59 -18.72,-196.54 32.76,-287.8l0 -2.34c51.47,-91.25 133.38,-152.09 226.96,-180.17 91.25,-25.74 194.21,-18.72 283.12,30.42l7.02 4.68c88.92,49.14 152.09,131.04 177.83,224.62 25.74,91.26 18.72,194.21 -30.42,283.13l-2.34 7.02c-9.36,14.04 -16.38,25.74 -25.74,37.44 -9.36,14.04 -21.06,28.08 -32.76,39.78 -18.72,21.06 -53.82,21.06 -74.88,0 -21.06,-18.72 -21.06,-53.81 0,-74.87 7.02,-7.02 14.04,-16.38 21.06,-25.74 7.02,-9.36 14.05,-18.72 18.73,-30.43l2.34 0c35.1,-65.51 42.12,-140.38 21.06,-208.25 -18.73,-65.51 -63.18,-124.01 -126.36,-161.44l-4.68 -2.34c-65.51,-35.1 -140.39,-39.78 -205.91,-21.06 -65.51,18.72 -124.01,63.17 -161.45,126.35l-2.34 4.68c-35.1,65.52 -42.12,140.39 -21.06,205.91 18.72,65.52 63.18,126.36 126.36,161.45l4.68 2.34c11.7,7.02 21.06,11.7 32.76,14.04 9.36,4.68 21.06,9.36 35.1,11.7zm-898.5 -290.14l0 0c9.36,-21.06 28.08,-35.1 51.47,-35.1l409.47 0c28.08,0 51.47,23.4 51.47,51.47 0,30.42 -23.4,53.81 -51.47,53.81l-374.37 0c-16.39,32.76 -32.77,67.85 -46.8,100.62 -112.31,238.66 -215.27,456.27 -51.47,704.29 53.81,81.89 128.7,149.74 215.27,196.55 84.23,46.79 180.17,70.19 283.12,70.19 100.62,0 196.55,-23.4 280.79,-70.19 86.57,-46.8 161.44,-114.66 215.27,-196.55 163.78,-248.02 63.17,-465.63 -49.14,-704.29 -21.06,-44.46 -42.12,-88.92 -60.83,-133.38 -11.7,-25.74 0,-58.49 25.74,-70.19 28.08,-11.7 58.49,2.34 70.19,28.08 21.07,46.79 39.79,88.91 60.84,131.03 124.01,266.75 238.66,510.09 42.12,807.25 -65.51,95.93 -152.09,177.83 -255.04,231.64 -84.24,46.79 -177.83,74.87 -278.44,81.89l0 4.68 0 666.86 374.37 259.73c16.38,9.36 28.08,28.08 28.08,46.79 0,30.42 -25.74,53.81 -53.81,53.81l-400.12 0 -402.44 0c-28.09,0 -51.48,-23.4 -51.48,-53.81 0,-18.72 9.36,-37.44 25.74,-46.79l374.38 -259.73 0 -666.86 0 -4.68c-100.61,-7.02 -194.21,-35.1 -278.44,-81.89 -102.96,-53.81 -189.53,-135.71 -252.7,-231.64 -198.89,-297.16 -84.24,-540.5 42.12,-807.25 18.72,-42.12 37.44,-81.89 56.15,-126.35zm486.69 2171.38l0 0 229.3 0 -229.3 -159.11 -231.64 159.11 231.64 0z"/></svg>